<svg width="129" height="61" viewBox="0 0 129 61" fill="none" xmlns="http://www.w3.org/2000/svg">
<path fill-rule="evenodd" clip-rule="evenodd" d="M50.5794 16.1531C48.1904 14.7934 44.4503 13.9776 39.3591 13.7056V13.624C43.2363 13.1346 46.154 12.21 48.1121 10.8503C50.1094 9.4906 51.1081 8.02214 51.1081 6.44491C51.1081 4.51415 49.8549 2.96411 47.3484 1.79478C44.8811 0.625454 41.2977 0.04079 36.5981 0.04079C35.5799 0.04079 34.6791 0.0543867 33.8958 0.0815797L27.3751 0.12237C23.4197 0.12237 20.4432 0.0815797 18.4459 0V0.815811C19.7383 0.870198 20.6782 0.978973 21.2657 1.14213C21.8923 1.3053 22.3035 1.61802 22.4993 2.08032C22.7343 2.54261 22.8518 3.29044 22.8518 4.3238V24.5559C22.8518 25.5893 22.7343 26.3371 22.4993 26.7994C22.3035 27.2617 21.8923 27.5744 21.2657 27.7376C20.6782 27.9007 19.7383 28.0095 18.4459 28.0639V28.8797C20.4432 28.7981 23.4588 28.7573 27.4926 28.7573C29.9599 28.7573 32.486 28.7845 35.0707 28.8389C35.854 28.8661 36.8135 28.8797 37.9492 28.8797C43.0405 28.8797 47.0155 28.1999 49.8745 26.8402C52.7334 25.4533 54.1628 23.4953 54.1628 20.9663C54.1628 19.1172 52.9684 17.5127 50.5794 16.1531ZM33.4846 1.10134C33.9937 0.910989 34.777 0.815811 35.8344 0.815811C37.8317 0.815811 39.2808 1.31889 40.1815 2.32506C41.1215 3.33123 41.5914 4.85407 41.5914 6.8936C41.5914 8.90593 41.0823 10.524 40.0641 11.7477C39.0458 12.9442 37.2639 13.5425 34.7183 13.5425H32.1922V4.3238C32.1922 3.34482 32.2901 2.61059 32.486 2.12111C32.6818 1.63162 33.0147 1.2917 33.4846 1.10134ZM44.4112 20.8032C44.4112 25.5621 41.6893 27.9415 36.2456 27.9415C35.0707 27.9415 34.1896 27.8599 33.6021 27.6968C33.0538 27.5064 32.6818 27.1801 32.486 26.7178C32.2901 26.2555 32.1922 25.5349 32.1922 24.5559V14.2359H34.6595C38.0276 14.2359 40.4949 14.7934 42.0614 15.9083C43.6279 17.0233 44.4112 18.6549 44.4112 20.8032ZM72.8364 5.22119C73.4238 5.05803 74.3833 4.94925 75.7149 4.89486V4.07905C73.7176 4.16063 70.8195 4.20143 67.0206 4.20143C62.8693 4.20143 59.8342 4.16063 57.9152 4.07905V4.89486C59.2076 4.94925 60.1475 5.05803 60.7349 5.22119C61.3615 5.38435 61.7728 5.69708 61.9686 6.15937C62.2036 6.62166 62.3211 7.36949 62.3211 8.40285V24.5559C62.3211 25.5893 62.2036 26.3371 61.9686 26.7994C61.7728 27.2617 61.3811 27.5744 60.7937 27.7376C60.2062 27.9007 59.2467 28.0095 57.9152 28.0639V28.8797C59.8733 28.7981 62.9085 28.7573 67.0206 28.7573C70.8195 28.7573 73.7176 28.7981 75.7149 28.8797V28.0639C74.3833 28.0095 73.4238 27.9007 72.8364 27.7376C72.2489 27.5744 71.8377 27.2617 71.6028 26.7994C71.4069 26.3371 71.309 25.5893 71.309 24.5559V8.40285C71.309 7.36949 71.4069 6.62166 71.6028 6.15937C71.8377 5.69708 72.2489 5.38435 72.8364 5.22119ZM115.021 28.0639C113.689 28.0095 112.455 27.1393 111.32 25.4533L97.3385 3.99747C97.0644 4.02467 96.614 4.03826 95.9874 4.03826C95.3999 4.03826 94.9496 4.02467 94.6363 3.99747L82.2411 23.6993C81.3403 25.0862 80.4787 26.1331 79.6563 26.8402C78.873 27.52 78.0114 27.9279 77.0715 28.0639V28.8797C78.1289 28.7981 79.715 28.7573 81.8299 28.7573C84.1013 28.7573 86.3532 28.7981 88.5855 28.8797V28.0639C86.9015 28.0095 85.6287 27.7648 84.7671 27.3297C83.9055 26.8946 83.4747 26.2147 83.4747 25.2901C83.4747 24.284 84.023 22.8835 85.1196 21.0887L85.8245 19.9874H98.1609L101.098 24.6375C101.607 25.3717 101.862 25.9836 101.862 26.4731C101.862 27.0169 101.548 27.4112 100.922 27.656C100.295 27.8735 99.3357 28.0095 98.0434 28.0639V28.8797C100.041 28.7981 103.135 28.7573 107.325 28.7573C110.576 28.7573 113.141 28.7981 115.021 28.8797V28.0639ZM91.9927 10.2384L97.6323 19.1716H86.3532L91.9927 10.2384ZM4.40587 59.3706C6.46194 59.9145 8.89333 60.1864 11.7 60.1864C15.8775 60.1864 19.8264 59.6426 23.5469 58.5548C28.3444 57.1498 30.7432 55.2122 30.7432 52.7422C30.7432 50.4081 27.9854 48.8897 22.4699 48.1872C28.4423 47.394 31.4285 45.9437 31.4285 43.8362C31.4285 42.7711 30.4658 41.978 28.5403 41.4568C27.2021 41.0942 25.5867 40.9129 23.6938 40.9129C21.9641 40.9129 20.2507 41.0942 18.5536 41.4568C16.1712 41.9553 14.98 42.6239 14.98 43.4623C14.98 43.7343 15.0942 43.8702 15.3226 43.8702C15.4532 43.8702 15.5185 43.7909 15.5185 43.6323C15.5185 42.8845 16.5954 42.3292 18.7494 41.9667C20.2834 41.6947 21.8499 41.5588 23.449 41.5588C24.885 41.5588 26.1905 41.6607 27.3654 41.8647C29.193 42.182 30.1068 42.6805 30.1068 43.3603C30.1068 44.3348 28.7687 45.2413 26.0925 46.0797C24.167 46.6916 22.2252 47.1335 20.267 47.4054C19.5163 47.496 18.8473 47.564 18.2599 47.6094C17.705 47.6547 17.2482 47.7 16.8892 47.7453C16.2691 47.8359 15.959 48.0739 15.959 48.4592C15.959 48.7764 16.1875 48.935 16.6444 48.935C19.2879 48.935 21.6214 49.1616 23.6448 49.6149C26.5821 50.2494 28.0507 51.3031 28.0507 52.7762C28.0507 54.997 25.8314 56.7872 21.393 58.1469C17.7703 59.212 14.1477 59.7445 10.5251 59.7445C8.37116 59.7445 6.47827 59.45 4.84646 58.8607C2.85566 58.1583 1.86026 57.0932 1.86026 55.6655C1.86026 54.8497 2.51298 54.2605 3.81842 53.8979C4.76487 53.6033 5.90713 53.456 7.24521 53.456C8.28957 53.456 9.39919 53.524 10.5741 53.66C10.6394 53.9772 10.7699 54.2832 10.9657 54.5777C11.1941 54.8723 11.4716 55.1556 11.7979 55.4275C12.4507 55.2462 13.1687 54.8383 13.9519 54.2038C15.649 54.5211 17.5909 55.031 19.7775 55.7335C19.9733 55.7788 20.1038 55.8015 20.1691 55.8015C20.2996 55.8015 20.3649 55.7675 20.3649 55.6995C20.3649 55.3596 18.3741 54.7251 14.3925 53.7959C14.9147 53.2974 15.1758 52.8668 15.1758 52.5042C15.1758 52.2549 15.0126 52.1303 14.6862 52.1303C14.1967 52.1303 13.5603 52.3682 12.777 52.8441C12.4507 52.0737 12.0101 51.6884 11.4553 51.6884C10.7373 51.6884 10.4109 52.1529 10.4762 53.0821C9.26865 52.9461 8.11006 52.8781 7.00044 52.8781C5.27072 52.8781 3.76947 53.0821 2.49666 53.49C0.83222 54.0339 0 54.827 0 55.8694C0 57.4557 1.46862 58.6228 4.40587 59.3706ZM36.9898 58.5208C38.5564 59.5632 40.6776 60.0845 43.3539 60.0845C45.2793 60.0845 47.2375 59.8125 49.2284 59.2687C52.9815 58.2942 56.0166 56.7079 58.3338 54.5098C60.7488 52.2209 61.9564 49.7282 61.9564 47.0315C61.9564 46.4196 61.9075 45.8758 61.8096 45.3999C61.4505 43.7229 60.2593 42.3746 58.2359 41.3548C56.343 40.3804 54.14 39.8931 51.6271 39.8931C45.6547 39.8931 40.8735 41.2075 37.2836 43.8362C35.3906 45.2186 34.4442 46.7369 34.4442 48.3912C34.4442 49.4336 34.7216 50.3967 35.2764 51.2805C34.8848 52.2323 34.689 53.1954 34.689 54.1698C34.689 56.028 35.4559 57.4784 36.9898 58.5208ZM49.4242 57.4331C46.9438 58.2489 44.594 58.6568 42.3748 58.6568C40.2534 58.6568 38.5726 58.2829 37.3325 57.5351C36.0923 56.7872 35.4723 55.6881 35.4723 54.2378C35.4723 53.9432 35.717 53.3087 36.2066 52.3343C37.0877 52.9688 37.9526 53.286 38.8011 53.286C38.997 53.286 39.0949 53.252 39.0949 53.1841C39.0949 53.1161 38.9153 53.0255 38.5564 52.9121C37.8383 52.6402 37.2019 52.1983 36.6472 51.5864C37.7894 49.8188 39.7149 47.9379 42.4237 45.9437C45.4915 43.6776 48.1514 42.5445 50.4033 42.5445C51.0886 42.5445 51.4313 42.4765 51.4313 42.3406C51.4313 42.2046 51.1049 42.1366 50.4522 42.1366C49.0488 42.1366 47.5312 42.4086 45.8995 42.9524C44.2676 43.4737 42.44 44.4367 40.4166 45.8418C39.4048 46.5442 38.54 47.2241 37.8221 47.8813C37.104 48.5385 36.5165 49.1616 36.0597 49.7509C35.9944 49.6149 35.9618 49.4336 35.9618 49.207C35.9618 48.1646 36.2718 47.2128 36.8919 46.3516C38.1973 44.4934 40.2534 43.0544 43.0601 42.0346C45.671 41.0829 48.5267 40.607 51.6271 40.607C53.8463 40.607 55.9024 41.0375 57.7953 41.8987C59.8187 42.8278 60.9774 44.0175 61.2711 45.4678C61.3037 45.6492 61.32 45.8418 61.32 46.0457C61.3526 46.227 61.369 46.4196 61.369 46.6236C61.369 48.8671 60.1124 51.0312 57.5995 53.1161C55.4781 54.8837 52.7531 56.3227 49.4242 57.4331ZM46.1932 49.037C46.1932 49.8982 46.6338 50.7026 47.515 51.4505C48.1676 51.3145 48.8857 50.9066 49.669 50.2267C50.4848 49.5695 50.8928 49.003 50.8928 48.5271C50.8928 48.2778 50.7296 48.1532 50.4033 48.1532C49.881 48.1532 49.2446 48.4025 48.4941 48.9011C48.1676 48.1306 47.727 47.7453 47.1723 47.7453C46.5195 47.7453 46.1932 48.1759 46.1932 49.037ZM79.5749 57.773C80.0645 58.4075 80.7498 58.7248 81.631 58.7248C83.2301 58.7248 85.4984 57.2065 88.4356 54.1698C88.5661 54.0565 88.6314 53.9432 88.6314 53.8299C88.6314 53.7393 88.5825 53.6939 88.4846 53.6939C88.3867 53.6939 88.2398 53.7846 88.044 53.9659C85.27 56.8212 83.3118 58.2489 82.1695 58.2489C81.3536 58.2489 80.9456 57.603 80.9456 56.3113C80.9456 54.5891 81.4188 52.9121 82.3653 51.2805C84.193 50.3287 85.1067 49.3769 85.1067 48.4252C85.1067 47.6547 84.4703 47.2694 83.1975 47.2694C80.5214 47.2694 77.8289 48.3232 75.1201 50.4307C72.444 52.4929 71.1059 54.4871 71.1059 56.4133C71.1059 57.6144 71.7749 58.2149 73.113 58.2149C75.2996 58.2149 77.4209 56.6286 79.477 53.456C79.3138 53.9545 79.1833 54.4191 79.0854 54.8497C79.0201 55.2576 78.9875 55.6315 78.9875 55.9714C78.9875 56.6513 79.1833 57.2518 79.5749 57.773ZM79.2812 52.4022C77.3556 55.5749 75.3649 57.1611 73.3088 57.1611C72.5908 57.1611 72.2318 56.9006 72.2318 56.3793C72.2318 55.1556 73.5536 53.4446 76.1971 51.2465C78.8406 49.003 80.9783 47.8813 82.6101 47.8813C83.2954 47.8813 83.6381 48.1419 83.6381 48.6631C83.6381 49.139 83.377 49.6262 82.8549 50.1248C83.0181 49.7849 83.0996 49.5355 83.0996 49.3769C83.0996 49.173 83.0017 49.071 82.8059 49.071C82.2511 49.071 81.6636 49.3883 81.0435 50.0228C80.4235 50.6346 80.0808 51.1332 80.0155 51.5184L78.4979 52.1303C78.041 52.2436 77.8126 52.3569 77.8126 52.4702C77.8126 52.5382 77.8779 52.5722 78.0084 52.5722C78.1716 52.5722 78.3511 52.5609 78.5469 52.5382C78.7753 52.4929 79.0201 52.4476 79.2812 52.4022ZM87.4615 58.5208C87.4615 58.8154 87.6084 58.9627 87.9021 58.9627C88.1632 58.9627 88.359 58.7814 88.4896 58.4188C88.718 57.7164 89.0607 57.0592 89.5176 56.4473C89.9419 55.9034 90.4803 55.3256 91.1331 54.7137C91.8185 54.0792 92.618 53.4107 93.5319 52.7082C94.5435 51.9377 95.4573 51.3031 96.2733 50.8046C97.1218 50.2834 97.905 49.9095 98.623 49.6829C98.5574 50.5213 98.4105 51.4958 98.1824 52.6062C98.0522 53.1047 97.921 53.592 97.7909 54.0679C97.6603 54.5437 97.5134 55.031 97.3503 55.5295C97.1871 56.2094 97.0566 56.7419 96.9586 57.1271C96.8607 57.4897 96.8118 57.6937 96.8118 57.739C96.8118 57.9203 96.9259 58.0109 97.1545 58.0109C97.4482 58.0109 97.6603 57.943 97.7909 57.807C99.8468 56.7646 101.593 55.3596 103.029 53.592C103.127 53.4786 103.176 53.3994 103.176 53.354C103.176 53.2634 103.127 53.2181 103.029 53.2181C102.963 53.2181 102.85 53.286 102.686 53.422C101.641 54.5324 100.173 55.5749 98.2803 56.5493C98.9001 55.0083 99.4386 53.66 99.8958 52.5042C100.353 51.3258 100.711 50.3514 100.973 49.5809C101.071 49.3769 101.12 49.207 101.12 49.071C101.12 48.6631 100.745 48.4592 99.9937 48.4592C98.3949 48.4592 96.3712 49.4449 93.9235 51.4165C93.1075 52.0737 92.308 52.7762 91.5247 53.524C90.7741 54.2718 90.0398 55.0536 89.3218 55.8694C89.5176 55.3709 89.7297 54.8723 89.9582 54.3738C90.2192 53.8525 90.4803 53.3087 90.7415 52.7422C90.8067 52.8101 90.8556 52.8441 90.8883 52.8441C91.182 52.8441 91.3289 52.5269 91.3289 51.8924V51.5864C92.9607 48.6178 93.7929 47.1675 93.8256 47.2354C93.8256 47.0315 93.5808 46.9295 93.0913 46.9295C92.6343 46.9295 91.5899 47.1448 89.9582 47.5754C89.4034 47.7113 89.126 47.8587 89.126 48.0173L89.2239 48.2212C89.3218 48.3572 89.4523 48.5725 89.6155 48.8671L90.203 49.8528C89.7786 51.1219 89.4197 52.2436 89.126 53.2181L88.3917 55.5975C88.1959 56.232 88.0163 56.7872 87.8532 57.2631C87.7226 57.739 87.592 58.1356 87.4615 58.4528V58.5208ZM90.9373 47.8133L90.4967 48.935L90.0072 48.1532C90.464 48.0173 90.7741 47.9039 90.9373 47.8133ZM102.984 56.7872C102.984 57.9203 103.62 58.4868 104.893 58.4868C105.774 58.4868 106.851 58.1129 108.124 57.3651C109.332 56.6399 109.903 56.266 109.837 56.2434C109.903 56.2434 109.984 56.2547 110.082 56.2773C110.213 56.3 110.311 56.3113 110.376 56.3113C110.703 56.3113 111.078 56.2207 111.502 56.0394H109.984C111.518 54.5664 112.481 52.4476 112.873 49.6829C113.362 49.6829 113.77 49.7735 114.096 49.9548C114.423 50.1134 114.586 50.3514 114.586 50.6686C114.586 50.8952 114.554 51.0879 114.488 51.2465C114.456 51.4051 114.439 51.5411 114.439 51.6544C114.439 51.745 114.505 51.7904 114.635 51.7904C114.766 51.7904 114.896 51.6998 115.027 51.5184C115.19 51.3145 115.271 50.9859 115.271 50.5327C115.271 49.9435 115.06 49.4903 114.635 49.173C114.243 48.8331 113.64 48.6518 112.824 48.6291C112.498 46.227 111.323 45.026 109.299 45.026C107.668 45.026 106.329 45.7398 105.285 47.1675C104.73 47.8926 104.452 48.7424 104.452 49.7169C104.452 50.714 104.714 51.6544 105.236 52.5382C103.735 53.9885 102.984 55.4049 102.984 56.7872ZM112.04 48.6971C109.854 49.1504 107.766 50.3061 105.774 52.1643C105.676 51.779 105.627 51.3711 105.627 50.9406C105.627 49.8755 105.905 48.8671 106.46 47.9153C107.341 46.4876 108.304 45.7738 109.348 45.7738C110.49 45.7738 111.388 46.7482 112.04 48.6971ZM110.816 52.9461C110.001 54.3964 109.201 55.3709 108.418 55.8694C107.439 55.7108 106.606 54.7703 105.921 53.0481C106.28 52.5496 107.211 51.881 108.711 51.0426C110.246 50.1814 111.372 49.7169 112.089 49.6489C112.089 50.3514 111.665 51.4505 110.816 52.9461ZM108.222 56.0394C107.015 56.9912 105.954 57.4671 105.04 57.4671C104.322 57.4671 103.963 57.0705 103.963 56.2773C103.963 55.5749 104.501 54.6004 105.578 53.354C106.264 55.0536 107.145 55.9488 108.222 56.0394ZM116.957 57.3311C118.198 58.2149 119.585 58.6568 121.118 58.6568C122.261 58.6568 123.142 58.3735 123.762 57.807C124.349 57.2858 124.692 56.6286 124.79 55.8354C126.422 55.6089 127.793 54.8497 128.902 53.558C128.968 53.422 129 53.3427 129 53.32C129 53.2294 128.951 53.1841 128.853 53.1841C128.755 53.1841 128.657 53.2294 128.559 53.32C127.907 53.9999 127.385 54.4531 126.993 54.6797C126.373 55.0423 125.622 55.2689 124.741 55.3596C124.741 54.9743 124.692 54.5551 124.594 54.1019C124.496 53.626 124.317 53.1161 124.056 52.5722L122.881 49.8528C122.783 49.6489 122.734 49.4563 122.734 49.275C122.734 48.7764 123.012 48.3798 123.566 48.0852C124.121 47.7907 124.758 47.6433 125.475 47.6433H125.867C125.965 47.666 126.047 47.6773 126.112 47.6773H126.259C126.683 47.6773 126.895 47.598 126.895 47.4394C126.895 47.2128 126.667 47.0201 126.21 46.8615C125.786 46.7029 125.411 46.6236 125.084 46.6236C123.55 46.6236 122.212 47.2354 121.069 48.4592C119.275 50.4533 117.887 52.2436 116.908 53.8299C116.582 53.49 116.256 53.32 115.929 53.32C115.407 53.32 115.146 53.6713 115.146 54.3738C115.146 55.4389 115.75 56.4247 116.957 57.3311ZM122.783 55.5635C122.783 55.6315 122.767 55.7108 122.734 55.8015C122.31 55.7788 121.853 55.7221 121.363 55.6315C120.907 55.5409 120.417 55.4162 119.895 55.2576L118.818 54.8837C118.394 54.7024 117.872 54.4984 117.251 54.2718C119.177 51.6204 120.564 49.9888 121.412 49.3769C121.282 49.8528 121.461 50.8046 121.951 52.2323C122.212 52.9801 122.408 53.6146 122.538 54.1358C122.702 54.6344 122.783 55.031 122.783 55.3256V55.5635ZM122.685 56.2094C122.261 57.0932 121.396 57.5351 120.09 57.5351C119.373 57.5351 118.638 57.2631 117.887 56.7192C117.17 56.13 116.778 55.5861 116.713 55.0876C118.083 55.8354 120.075 56.2094 122.685 56.2094Z" fill="white"/>
</svg>
